# xmcd
#
# Track frame offsets: 
#        150
#        18235
#        34784
#        44125
#        69962
#        87866
#        100682
#        113997
#        129644
#        157438
#        184157
#        213072
#        235823
#
# Disc length: 3441 seconds
#
# Revision: 3
# Processed by: cddbd v1.5.2PL0 Copyright (c) Steve Scherf et al.
# Submitted via: ExactAudioCopy v1.0b2
#
DISCID=af0d6f0d
DTITLE=Various Artist - Festival International de Jazz de Montreal - 
DTITLE=Compilation 2006
DYEAR=2006
DGENRE=Jazz
TTITLE0=Molly Johnson - Rain
TTITLE1=Matt Dusk - On The Street Where You Live
TTITLE2=Gonzalez - Bobo
TTITLE3=Nils Petter Molvaer - Vilderness (Live From Hamburg)
TTITLE4=Jamie Cullum - I Only Have Eyes For You
TTITLE5=Chris Potter - Yesterday
TTITLE6=Elvis Costello and Allen Toussaint - Freedom For The Stallion
TTITLE7=Roxanne Potvin - A Love That Sim
TTITLE8=Denzel Sinclaire - Stardust
TTITLE9=Salif Keita - Bobo
TTITLE10=Wayne Shorter - As Far As The Eye Can See
TTITLE11=McCoy Tyner - Star Eyes
TTITLE12=Brazilian Girls - Girls-Zone A
EXTD=YEAR: 2006
EXTT0=
EXTT1=
EXTT2=
EXTT3=
EXTT4=
EXTT5=
EXTT6=
EXTT7=
EXTT8=
EXTT9=
EXTT10=
EXTT11=
EXTT12=
PLAYORDER=
